Coordinates
version=1
nRows=15
nColumns=42
inDegrees=yes

Units are S.I. units (second, meters, Newtons, ...)
If the header above contains a line with 'inDegrees', this indicates whether rotational values are in degrees (yes) or radians (no).

endheader
time	pelvis_tilt	pelvis_list	pelvis_rotation	pelvis_tx	pelvis_ty	pelvis_tz	hip_flexion_r	hip_adduction_r	hip_rotation_r	knee_angle_r	knee_adduction_r	knee_angle_r_beta	ankle_angle_r	subtalar_angle_r	mtp_angle_r	hip_flexion_l	hip_adduction_l	hip_rotation_l	knee_angle_l	knee_adduction_l	knee_angle_l_beta	ankle_angle_l	subtalar_angle_l	mtp_angle_l	lumbar_extension	lumbar_bending	lumbar_rotation	arm_flex_r	arm_add_r	arm_rot_r	elbow_flex_r	pro_sup_r	wrist_flex_r	wrist_dev_r	arm_flex_l	arm_add_l	arm_rot_l	elbow_flex_l	pro_sup_l	wrist_flex_l	wrist_dev_l
      1.45000000	     10.69130907	     -1.34169420	     10.51933603	     -0.15965429	      0.87893939	      0.19734808	     -6.64390929	     10.87014315	     -2.62561021	     15.98520515	     -1.75609535	      0.27899446	     21.73118434	    -10.86348242	     -7.56160646	     15.61854878	      2.11943892	      0.04762557	     53.44648620	    -10.77127808	      0.93281716	     16.75731202	    -16.22401875	     -7.56160646	    -40.54883919	      5.73598589	     -1.95579651	     17.42693580	     -9.72480054	     -5.04121457	     37.12977382	     90.00000001	      0.00000000	      0.00000000	     14.63630795	     -7.62499482	    -15.37164615	     24.88917105	     90.00000001	      0.00000000	      0.00000000
      1.46000000	     10.53864354	     -1.44996957	     10.49863567	     -0.15158871	      0.87791168	      0.19749078	     -7.04689278	     11.23147191	     -2.65436429	     16.00858576	     -2.09907736	      0.27940253	     22.25687852	    -10.72912053	     -7.56042358	     16.66191458	      2.16043644	      0.14827515	     51.61523495	    -10.34440554	      0.90085579	     16.66178324	    -15.66937371	     -7.56042358	    -40.30702383	      5.79830865	     -1.87777500	     17.96452200	     -9.86479000	     -4.87575478	     37.56131966	     90.00000001	      0.00000000	      0.00000000	     14.20207522	     -7.57810992	    -15.58642449	     24.64608604	     90.00000001	      0.00000000	      0.00000000
      1.47000000	     10.46542195	     -1.49345586	     10.45945702	     -0.14344118	      0.87703321	      0.19747761	     -7.59470093	     11.45480116	     -2.59460804	     15.99847127	     -2.27687837	      0.27922600	     22.83622741	    -10.56755462	     -7.55921846	     17.46801196	      2.23501933	      0.28135209	     49.53400006	     -9.78673182	      0.86453139	     16.53688420	    -15.12086239	     -7.55921846	    -40.14483667	      5.81400010	     -1.80575458	     18.46898294	    -10.03876304	     -4.62578107	     37.99380761	     90.00000001	      0.00000000	      0.00000000	     13.86395531	     -7.51235946	    -15.89029511	     24.30062221	     90.00000001	      0.00000000	      0.00000000
      1.48000000	     10.69327722	     -1.33475335	     10.38988012	     -0.13501513	      0.87690557	      0.19713964	     -8.78670668	     11.33329756	     -2.26066554	     15.54810956	     -2.04608303	      0.27136570	     23.23482113	    -10.37564178	     -7.55676227	     17.61506797	      2.49238496	      0.34532008	     46.96211406	     -9.20651972	      0.81964351	     16.24766570	    -14.80132473	     -7.55676227	    -40.32323880	      5.69368169	     -1.83428208	     18.97204409	    -10.25190851	     -4.01822299	     38.51227345	     90.00000001	      0.00000000	      0.00000000	     13.71211210	     -7.35967709	    -16.93617589	     23.72403536	     90.00000001	      0.00000000	      0.00000000
      1.49000000	     10.47355470	     -1.56648294	     10.39246278	     -0.12697911	      0.87533185	      0.19705353	     -9.06696874	     11.79523172	     -2.34896877	     15.63569935	     -2.37254676	      0.27289443	     23.71563637	    -10.19375404	     -7.55575867	     18.69805443	      2.30441814	      0.13764291	     44.93061025	     -8.73353117	      0.78418708	     16.14311998	    -14.09777430	     -7.55575867	    -39.97521739	      5.90625434	     -1.70660195	     19.46827613	    -10.39834171	     -3.89595288	     38.90694829	     90.00000001	      0.00000000	      0.00000000	     13.29840678	     -7.26245841	    -17.08633782	     23.64870759	     90.00000001	      0.00000000	      0.00000000
      1.50000000	     10.73475460	     -1.39294419	     10.24733516	     -0.11845383	      0.87508736	      0.19672392	    -10.30366349	     11.65672108	     -2.02555929	     15.20327526	     -2.20803310	      0.26534721	     24.20322122	     -9.96186271	     -7.55305824	     18.68634718	      2.47782150	     -0.29932098	     42.13817444	     -8.28238635	      0.73544988	     16.02689299	    -13.18923710	     -7.55305824	    -40.20390470	      5.74264665	     -1.70039281	     19.96622241	    -10.58565103	     -3.32155469	     39.38229313	     90.00000001	      0.00000000	      0.00000000	     13.13908853	     -7.15047129	    -18.08633622	     23.19819664	     90.00000001	      0.00000000	      0.00000000
      1.51000000	     10.57462283	     -1.57196040	     10.16129881	     -0.11041417	      0.87357104	      0.19664278	    -10.67660955	     12.01298527	     -2.04781112	     15.29579645	     -2.46126815	      0.26696201	     24.78283115	     -9.78540002	     -7.55188239	     19.51354741	      2.25129632	     -0.72741126	     39.86015021	     -7.71420278	      0.69569086	     15.99375521	    -12.27415028	     -7.55188239	    -39.95430305	      5.87124119	     -1.54378741	     20.46711909	    -10.70822354	     -3.14304019	     39.75147193	     90.00000001	      0.00000000	      0.00000000	     12.81156509	     -7.06276375	    -18.27347733	     23.11005948	     90.00000001	      0.00000000	      0.00000000
      1.52000000	     10.79835637	     -1.44186776	      9.99844549	     -0.10189909	      0.87304441	      0.19619606	    -11.81473129	     11.86496696	     -1.88628889	     14.96174805	     -2.28124684	      0.26113177	     25.29040692	     -9.37594575	     -7.54973851	     19.49697420	      2.32419553	     -1.65963405	     37.06661068	     -7.40109551	      0.64693440	     16.11979211	    -10.70667809	     -7.54973851	    -40.14115102	      5.75309868	     -1.49828424	     20.96873906	    -10.87661240	     -2.68082077	     40.16459997	     90.00000001	      0.00000000	      0.00000000	     12.62749285	     -6.97111386	    -18.92412541	     22.85173982	     90.00000001	      0.00000000	      0.00000000
      1.53000000	     10.81397451	     -1.49758958	      9.84968699	     -0.09360952	      0.87187948	      0.19594901	    -12.53811385	     11.98304039	     -1.81287973	     14.86919341	     -2.31137854	      0.25951638	     25.83558112	     -9.06983538	     -7.54809886	     19.86749724	      2.12908281	     -2.52422766	     34.58976812	     -6.85803646	      0.60370534	     16.24498947	     -9.16050681	     -7.54809886	    -40.10016642	      5.76728796	     -1.36974239	     21.45489721	    -10.98746343	     -2.37289633	     40.50722439	     90.00000001	      0.00000000	      0.00000000	     12.38899594	     -6.88606819	    -19.29397998	     22.73999545	     90.00000001	      0.00000000	      0.00000000
      1.54000000	     10.53238312	     -1.82952879	      9.95283652	     -0.08563471	      0.86972428	      0.19533134	    -12.75390301	     12.35807155	     -2.14082211	     14.92521108	     -2.28608924	      0.26049407	     26.03711856	     -8.82464026	     -7.54746524	     21.00988096	      1.72478860	     -3.35701738	     32.97689972	     -6.27846143	      0.57555548	     16.21143025	     -8.66608563	     -7.54746524	    -39.68763380	      6.16024764	     -1.36184258	     21.92823924	    -11.01772256	     -2.31050911	     40.88074872	     90.00000001	      0.00000000	      0.00000000	     12.01305207	     -6.81506449	    -19.31502434	     22.80637839	     90.00000001	      0.00000000	      0.00000000
      1.55000000	     11.05239453	     -1.48069261	      9.58075871	     -0.07663179	      0.86983047	      0.19499162	    -14.43608418	     12.02646060	     -1.73224510	     14.36895271	     -2.29382513	      0.25078553	     26.77668266	     -8.10826500	     -7.54532823	     20.14038530	      1.91317224	     -4.86814931	     29.84086222	     -6.09402837	      0.52082130	     16.71606346	     -5.11675955	     -7.54532823	    -40.21333605	      5.74054018	     -1.23925208	     22.38187599	    -11.19043014	     -1.65035943	     41.17748096	     90.00000001	      0.00000000	      0.00000000	     11.96562671	     -6.75135382	    -20.06391042	     22.58932959	     90.00000001	      0.00000000	      0.00000000
      1.56000000	     10.92460281	     -1.69535239	      9.44886522	     -0.06840836	      0.86809888	      0.19480112	    -14.89096295	     12.40090556	     -1.66572055	     14.42409827	     -2.58559735	      0.25174801	     27.32077594	     -7.87431056	     -7.54433396	     20.67189251	      1.49925856	     -5.61151969	     28.03533185	     -5.35434947	      0.48930885	     16.78117556	     -3.62506099	     -7.54433396	    -40.00464921	      5.87237969	     -1.04805853	     22.81628806	    -11.23929316	     -1.44788859	     41.40499456	     90.00000001	      0.00000000	      0.00000000	     11.76815454	     -6.67650626	    -20.20956629	     22.60423407	     90.00000001	      0.00000000	      0.00000000
      1.57000000	     11.25938519	     -1.59090017	      9.28654283	     -0.05934504	      0.86737943	      0.19408356	    -16.26209307	     12.23022621	     -1.37680869	     13.98409441	     -2.33199821	      0.24406849	     27.60645197	     -7.39410513	     -7.54237717	     20.44142197	      1.41612914	     -7.36583469	     26.24997240	     -5.14122723	      0.45814845	     17.38204417	     -0.36541627	     -7.54237717	    -40.23512343	      5.78534237	     -1.06589040	     23.18872978	    -11.29057039	     -0.95365457	     41.68222944	     90.00000001	      0.00000000	      0.00000000	     11.57558676	     -6.62467446	    -20.74536869	     22.48210560	     90.00000001	      0.00000000	      0.00000000
      1.58000000	     11.03970697	     -1.84834991	      9.33056334	     -0.05115774	      0.86530224	      0.19329205	    -16.55573963	     12.49087074	     -1.62386088	     14.13302589	     -2.29065838	      0.24666784	     27.74976434	     -7.25596412	     -7.54192023	     21.26250635	      1.14413475	     -7.93248884	     25.47228669	     -4.62612692	      0.44457527	     17.35372240	     -0.08923904	     -7.54192023	    -39.90790957	      6.07777754	     -1.04870295	     23.58381690	    -11.28133838	     -0.91145721	     41.94723565	     90.00000001	      0.00000000	      0.00000000	     11.38835257	     -6.56505714	    -20.72603917	     22.57997671	     90.00000001	      0.00000000	      0.00000000
      1.59000000	     11.33946090	     -1.96823388	      8.96552362	     -0.04176752	      0.86430867	      0.19334520	    -17.94430793	     12.74912741	     -0.58625563	     13.58943066	     -2.43291111	      0.23718031	     27.98670327	     -7.44806678	     -7.53735692	     21.30553514	      0.51639141	    -10.63145916	     24.83632079	     -4.62623757	      0.43347557	     18.46765517	      5.40202286	     -7.53735692	    -40.05767468	      6.00886791	     -0.75397647	     23.88646074	    -11.36362387	     -0.29916793	     42.09600478	     90.00000001	      0.00000000	      0.00000000	     11.27711110	     -6.50241362	    -21.33956255	     22.47974098	     90.00000001	      0.00000000	      0.00000000
